<?xml version="1.0" encoding="UTF-8"?>
<svg width="14px" height="14px" viewBox="0 0 14 14" version="1.1" xmlns="http://www.w3.org/2000/svg" xmlns:xlink="http://www.w3.org/1999/xlink">
    <title>all-application</title>
    <defs>
        <filter id="filter-1">
            <feColorMatrix in="SourceGraphic" type="matrix" values="0 0 0 0 1.000000 0 0 0 0 1.000000 0 0 0 0 1.000000 0 0 0 1.000000 0"></feColorMatrix>
        </filter>
    </defs>
    <g id="页面" stroke="none" stroke-width="1" fill="none" fill-rule="evenodd">
        <g id="3.0数据管理/我的资源" transform="translate(-20.000000, -209.000000)">
            <g id="编组-7备份-2" transform="translate(0.000000, 196.000000)">
                <g id="编组-14" transform="translate(20.000000, 13.000000)">
                    <rect id="矩形" x="0" y="0" width="14" height="14"></rect>
                    <g filter="url(#filter-1)" id="全部_all-application-(1)" stroke-linejoin="round">
                        <g transform="translate(1.000000, 1.000000)">
                            <path d="M4,0 L0.666666667,0 C0.298476667,0 0,0.298476667 0,0.666666667 L0,4 C0,4.3682 0.298476667,4.66666667 0.666666667,4.66666667 L4,4.66666667 C4.3682,4.66666667 4.66666667,4.3682 4.66666667,4 L4.66666667,0.666666667 C4.66666667,0.298476667 4.3682,0 4,0 Z" id="路径" stroke="#333333"></path>
                            <path d="M4,7.33333333 L0.666666667,7.33333333 C0.298476667,7.33333333 0,7.6318 0,8 L0,11.3333333 C0,11.7015333 0.298476667,12 0.666666667,12 L4,12 C4.3682,12 4.66666667,11.7015333 4.66666667,11.3333333 L4.66666667,8 C4.66666667,7.6318 4.3682,7.33333333 4,7.33333333 Z" id="路径" stroke="#333333"></path>
                            <path d="M11.3333333,0 L8,0 C7.6318,0 7.33333333,0.298476667 7.33333333,0.666666667 L7.33333333,4 C7.33333333,4.3682 7.6318,4.66666667 8,4.66666667 L11.3333333,4.66666667 C11.7015333,4.66666667 12,4.3682 12,4 L12,0.666666667 C12,0.298476667 11.7015333,0 11.3333333,0 Z" id="路径" stroke="#333333"></path>
                            <path d="M11.3333333,7.33333333 L8,7.33333333 C7.6318,7.33333333 7.33333333,7.6318 7.33333333,8 L7.33333333,11.3333333 C7.33333333,11.7015333 7.6318,12 8,12 L11.3333333,12 C11.7015333,12 12,11.7015333 12,11.3333333 L12,8 C12,7.6318 11.7015333,7.33333333 11.3333333,7.33333333 Z" id="路径" stroke="#333333"></path>
                        </g>
                    </g>
                </g>
            </g>
        </g>
    </g>
</svg>