<?xml version="1.0" standalone="no"?><!DOCTYPE svg PUBLIC "-//W3C//DTD SVG 1.1//EN" "http://www.w3.org/Graphics/SVG/1.1/DTD/svg11.dtd"><svg t="1660291773214" class="icon" viewBox="0 0 1024 1024" version="1.1" xmlns="http://www.w3.org/2000/svg" p-id="1090" xmlns:xlink="http://www.w3.org/1999/xlink" width="200" height="200"><defs><style type="text/css"></style></defs><path d="M513 513.22m-431.91 0a431.91 431.91 0 1 0 863.82 0 431.91 431.91 0 1 0-863.82 0Z" fill="#FDBC2D" p-id="1091"></path><path d="M513 957.88c-60.02 0-118.26-11.76-173.09-34.95-52.95-22.4-100.5-54.46-141.34-95.29s-72.89-88.38-95.29-141.34C80.1 631.48 68.34 573.25 68.34 513.22s11.76-118.26 34.95-173.09c22.4-52.95 54.46-100.5 95.29-141.34s88.39-72.89 141.34-95.29C394.74 80.32 452.98 68.56 513 68.56s118.26 11.76 173.09 34.95c52.95 22.4 100.5 54.46 141.34 95.29s72.89 88.38 95.29 141.34c23.19 54.83 34.95 113.06 34.95 173.09s-11.76 118.26-34.95 173.09c-22.4 52.95-54.46 100.5-95.29 141.34s-88.39 72.89-141.34 95.29c-54.83 23.18-113.07 34.93-173.09 34.93z m0-863.83c-231.13 0-419.17 188.04-419.17 419.17S281.87 932.39 513 932.39s419.17-188.04 419.17-419.17S744.13 94.05 513 94.05z" p-id="1092"></path><path d="M513 81.31S489.43 510.65 81.09 513.22" fill="#FDBC2D" p-id="1093"></path><path d="M81.17 525.97L81 500.48c163.98-1.03 284.26-71.48 357.51-209.39 55.22-103.98 61.7-209.43 61.76-210.48l25.45 1.4c-0.25 4.5-6.71 111.38-64.29 220.25-34.04 64.36-78.93 115.81-133.42 152.93-68.07 46.36-151.12 70.18-246.84 70.78z" p-id="1094"></path><path d="M944.91 513.22S518.71 505.46 513 945.13" fill="#FDBC2D" p-id="1095"></path><path d="M525.75 945.3l-25.49-0.33c1.76-135.54 42.94-243.31 122.41-320.33 30.15-29.22 65.89-53.93 106.24-73.45 32.14-15.55 67.25-27.85 104.37-36.57 63.19-14.84 109.92-14.18 111.88-14.14l-0.46 25.49 0.23-12.74-0.22 12.74c-0.45 0.01-46.12-0.6-106.4 13.66-55.15 13.05-134.29 41.59-198.06 103.49-74.32 72.1-112.84 173.78-114.5 302.18z" p-id="1096"></path><path d="M822.59 814.39L211.83 203.64" fill="#FDBC2D" p-id="1097"></path><path d="M202.809 212.65l18.024-18.023 610.75 610.75-18.024 18.024z" p-id="1098"></path><path d="M814.17 203.64L203.41 814.39" fill="#FDBC2D" p-id="1099"></path><path d="M194.397 805.398l610.75-610.75 18.024 18.024-610.75 610.75z" p-id="1100"></path></svg>