<?xml version="1.0" encoding="UTF-8"?>
<svg width="14px" height="15px" viewBox="0 0 14 15" version="1.1" xmlns="http://www.w3.org/2000/svg" xmlns:xlink="http://www.w3.org/1999/xlink">
    <title>编组 2</title>
    <g id="v1.0" stroke="none" stroke-width="1" fill="none" fill-rule="evenodd">
        <g id="2.1-年度报告" transform="translate(-20.000000, -121.000000)">
            <g id="编组-11备份" transform="translate(0.000000, 108.000000)">
                <g id="编组-2" transform="translate(20.000000, 13.000000)">
                    <g id="编组-15">
                        <rect id="矩形备份-2" x="0" y="0" width="14" height="14"></rect>
                    </g>
                    <g id="编组" transform="translate(2.000000, 1.000000)" stroke="#FFFFFF" stroke-linecap="round" stroke-linejoin="round">
                        <path d="M9.75,0 L0.65,0 C0.29101475,0 0,0.29101475 0,0.65 L0,12.35 C0,12.708995 0.29101475,13 0.65,13 L9.75,13 C10.108995,13 10.4,12.708995 10.4,12.35 L10.4,0.65 C10.4,0.29101475 10.108995,0 9.75,0 Z" id="路径"></path>
                        <line x1="2.925" y1="8.45" x2="7.475" y2="8.45" id="路径"></line>
                        <line x1="2.925" y1="10.4" x2="5.2" y2="10.4" id="路径"></line>
                        <polyline id="路径" points="7.15 2.925 4.55 5.525 3.25 4.225"></polyline>
                    </g>
                </g>
            </g>
        </g>
    </g>
</svg>