<?xml version="1.0" encoding="UTF-8"?>
<svg width="14px" height="14px" viewBox="0 0 14 14" version="1.1" xmlns="http://www.w3.org/2000/svg" xmlns:xlink="http://www.w3.org/1999/xlink">
    <title>date</title>
    <g id="页面" stroke="none" stroke-width="1" fill="none" fill-rule="evenodd">
        <g id="5.1.1项目管理/项目动态" transform="translate(-257.000000, -217.000000)" fill="#01458E" fill-rule="nonzero">
            <g id="编组-6" transform="translate(257.000000, 212.000000)">
                <g id="date" transform="translate(0.000000, 5.000000)">
                    <path d="M1,5 L1,13 L13,13 L13,2 L11,2 L11,2.5 C11,2.646 10.9532,2.76583 10.8595,2.8595 C10.7658,2.95317 10.646,3 10.5,3 C10.354,3 10.2342,2.95317 10.1405,2.8595 C10.0468,2.76583 10,2.646 10,2.5 L10,2 L4,2 L4,2.5 C4,2.646 3.95317,2.76583 3.8595,2.8595 C3.76583,2.95317 3.646,3 3.5,3 C3.354,3 3.23417,2.95317 3.1405,2.8595 C3.04683,2.76583 3,2.646 3,2.5 L3,2 L1,2 L1,4 L13,4 L13,5 L1,5 Z M4,1 L10,1 L10,0.5 C10,0.354 10.0468,0.234167 10.1405,0.1405 C10.2342,0.0468333 10.354,0 10.5,0 C10.646,0 10.7658,0.0468333 10.8595,0.1405 C10.9532,0.234167 11,0.354 11,0.5 L11,1 L13.5,1 C13.646,1 13.7658,1.04683 13.8595,1.1405 C13.9532,1.23417 14,1.354 14,1.5 L14,13.5 C14,13.646 13.9532,13.7658 13.8595,13.8595 C13.7658,13.9532 13.646,14 13.5,14 L0.5,14 C0.354,14 0.234167,13.9532 0.1405,13.8595 C0.0468333,13.7658 0,13.646 0,13.5 L0,1.5 C0,1.354 0.0468333,1.23417 0.1405,1.1405 C0.234167,1.04683 0.354,1 0.5,1 L3,1 L3,0.5 C3,0.354 3.04683,0.234167 3.1405,0.1405 C3.23417,0.0468333 3.354,0 3.5,0 C3.646,0 3.76583,0.0468333 3.8595,0.1405 C3.95317,0.234167 4,0.354 4,0.5 L4,1 L4,1 Z M3.5,7 L4.5,7 C4.646,7 4.76583,7.04683 4.8595,7.1405 C4.95317,7.23417 5,7.354 5,7.5 C5,7.646 4.95317,7.76583 4.8595,7.8595 C4.76583,7.95317 4.646,8 4.5,8 L3.5,8 C3.354,8 3.23417,7.95317 3.1405,7.8595 C3.04683,7.76583 3,7.646 3,7.5 C3,7.354 3.04683,7.23417 3.1405,7.1405 C3.23417,7.04683 3.354,7 3.5,7 L3.5,7 Z M3.5,10 L4.5,10 C4.646,10 4.76583,10.0468 4.8595,10.1405 C4.95317,10.2342 5,10.354 5,10.5 C5,10.646 4.95317,10.7658 4.8595,10.8595 C4.76583,10.9532 4.646,11 4.5,11 L3.5,11 C3.354,11 3.23417,10.9532 3.1405,10.8595 C3.04683,10.7658 3,10.646 3,10.5 C3,10.354 3.04683,10.2342 3.1405,10.1405 C3.23417,10.0468 3.354,10 3.5,10 Z M6.5,7 L7.5,7 C7.646,7 7.76583,7.04683 7.8595,7.1405 C7.95317,7.23417 8,7.354 8,7.5 C8,7.646 7.95317,7.76583 7.8595,7.8595 C7.76583,7.95317 7.646,8 7.5,8 L6.5,8 C6.354,8 6.23417,7.95317 6.1405,7.8595 C6.04683,7.76583 6,7.646 6,7.5 C6,7.354 6.04683,7.23417 6.1405,7.1405 C6.23417,7.04683 6.354,7 6.5,7 L6.5,7 Z M6.5,10 L7.5,10 C7.646,10 7.76583,10.0468 7.8595,10.1405 C7.95317,10.2342 8,10.354 8,10.5 C8,10.646 7.95317,10.7658 7.8595,10.8595 C7.76583,10.9532 7.646,11 7.5,11 L6.5,11 C6.354,11 6.23417,10.9532 6.1405,10.8595 C6.04683,10.7658 6,10.646 6,10.5 C6,10.354 6.04683,10.2342 6.1405,10.1405 C6.23417,10.0468 6.354,10 6.5,10 Z M9.5,7 L10.5,7 C10.646,7 10.7658,7.04683 10.8595,7.1405 C10.9532,7.23417 11,7.354 11,7.5 C11,7.646 10.9532,7.76583 10.8595,7.8595 C10.7658,7.95317 10.646,8 10.5,8 L9.5,8 C9.354,8 9.23417,7.95317 9.1405,7.8595 C9.04683,7.76583 9,7.646 9,7.5 C9,7.354 9.04683,7.23417 9.1405,7.1405 C9.23417,7.04683 9.354,7 9.5,7 L9.5,7 Z M9.5,10 L10.5,10 C10.646,10 10.7658,10.0468 10.8595,10.1405 C10.9532,10.2342 11,10.354 11,10.5 C11,10.646 10.9532,10.7658 10.8595,10.8595 C10.7658,10.9532 10.646,11 10.5,11 L9.5,11 C9.354,11 9.23417,10.9532 9.1405,10.8595 C9.04683,10.7658 9,10.646 9,10.5 C9,10.354 9.04683,10.2342 9.1405,10.1405 C9.23417,10.0468 9.354,10 9.5,10 Z" id="Vector"></path>
                </g>
            </g>
        </g>
    </g>
</svg>