<?xml version="1.0" encoding="UTF-8"?>
<svg viewBox="0 0 24 24" version="1.1" xmlns="http://www.w3.org/2000/svg" xmlns:xlink="http://www.w3.org/1999/xlink">
    <title>编组 2</title>
    <g id="页面-1" stroke="none" stroke-width="1" fill="none" fill-rule="evenodd">
        <g id="窗帘-copy-8备份-12" transform="translate(-58.000000, -577.000000)" fill-rule="nonzero">
            <g id="2" transform="translate(0.000000, 527.000000)">
                <g id="按钮底-copy" transform="translate(38.000000, 30.000000)">
                    <g id="编组-2" transform="translate(32.000000, 32.000000) scale(1, -1) translate(-32.000000, -32.000000) translate(20.000000, 20.000000)">
                        <rect id="矩形" x="0" y="0" width="24" height="24"></rect>
                        <path d="M19.7620089,17.6615723 L12.8837879,4.66937718 C12.6253807,4.18127459 12.0202149,3.99506973 11.5321123,4.25347698 C11.3549215,4.34728387 11.210019,4.49218639 11.1162121,4.66937718 L4.23799112,17.6615723 C3.97958386,18.1496749 4.16578872,18.7548407 4.65389131,19.013248 C4.90755157,19.1475387 5.20668522,19.1663634 5.4751796,19.0649322 L11.6465994,16.7335069 C11.874345,16.6474697 12.125655,16.6474697 12.3534006,16.7335069 L18.5248204,19.0649322 C19.0414674,19.2601099 19.6185153,18.9995076 19.8136931,18.4828606 C19.9151243,18.2143662 19.8962996,17.9152326 19.7620089,17.6615723 Z" id="路径" fill="#B3BFC9"></path>
                    </g>
                </g>
            </g>
        </g>
    </g>
</svg>