<?xml version="1.0" standalone="no"?><!DOCTYPE svg PUBLIC "-//W3C//DTD SVG 1.1//EN" "http://www.w3.org/Graphics/SVG/1.1/DTD/svg11.dtd"><svg t="1660895568612" class="icon" viewBox="0 0 1024 1024" version="1.1" xmlns="http://www.w3.org/2000/svg" p-id="1709" xmlns:xlink="http://www.w3.org/1999/xlink" width="200" height="200"><defs><style type="text/css"></style></defs><path d="M524.288 344.2688c-4.608-4.608-12.288-4.608-16.896 0L257.024 593.1008c-12.288 12.288-18.432 27.648-18.432 44.544l1.536 115.2c0 6.144 6.144 12.288 12.288 12.288h138.24l268.8-267.264c3.072-3.072 3.072-6.144 3.072-9.216 0-3.072-1.536-6.144-3.072-9.216l-135.168-135.168z m231.936 38.4l-135.168-135.168c-4.608-4.608-12.288-4.608-16.896 0l-46.08 46.08c-3.072 3.072-3.072 6.144-3.072 9.216 0 3.072 1.536 6.144 3.072 9.216l135.168 135.168c3.072 3.072 6.144 3.072 9.216 3.072s6.144-1.536 9.216-3.072l46.08-46.08c3.072-3.072 3.072-6.144 3.072-9.216-1.536-4.608-1.536-7.68-4.608-9.216z" fill="#409EFF" p-id="1710"></path><path d="M660.992 43.8272h-322.56C172.544 43.8272 38.912 177.4592 38.912 343.3472v322.56c0 165.888 133.632 299.52 299.52 299.52h322.56c165.888 0 299.52-133.632 299.52-299.52v-322.56c0-165.888-133.632-299.52-299.52-299.52z m-276.48 769.536H253.952c-33.792 0-61.44-27.648-61.44-61.44V621.3632c0-16.896 6.144-32.256 18.432-43.008L573.44 215.8592c24.576-24.576 62.976-24.576 87.552 0L791.552 346.4192c24.576 24.576 24.576 62.976 0 87.552L427.52 794.9312c-10.752 12.288-27.648 18.432-43.008 18.432z m393.216 0h-224.256c-12.288 0-23.04-10.752-23.04-23.04 0-6.144 3.072-12.288 6.144-16.896 4.608-4.608 10.752-6.144 16.896-6.144h224.256c16.896 0 30.72 4.608 30.72 21.504 0 16.896-13.824 24.576-30.72 24.576z" fill="#409EFF" p-id="1711"></path></svg>