<?xml version="1.0" encoding="UTF-8"?>
<svg width="44px" height="44px" viewBox="0 0 44 44" version="1.1" xmlns="http://www.w3.org/2000/svg" xmlns:xlink="http://www.w3.org/1999/xlink">
    <title>edit</title>
    <defs>
        <path d="M16,32 C24.83656,32 32,24.83656 32,16 C32,7.16344 24.83656,0 16,0 C7.16344,0 0,7.16344 0,16 C0,24.83656 7.16344,32 16,32 Z" id="path-1"></path>
        <filter x="-28.1%" y="-28.1%" width="156.2%" height="156.2%" filterUnits="objectBoundingBox" id="filter-2">
            <feOffset dx="0" dy="0" in="SourceAlpha" result="shadowOffsetOuter1"></feOffset>
            <feGaussianBlur stdDeviation="3" in="shadowOffsetOuter1" result="shadowBlurOuter1"></feGaussianBlur>
            <feColorMatrix values="0 0 0 0 0.713541667   0 0 0 0 0.713541667   0 0 0 0 0.713541667  0 0 0 0.695175918 0" type="matrix" in="shadowBlurOuter1"></feColorMatrix>
        </filter>
    </defs>
    <g id="------2.1（0202）" stroke="none" stroke-width="1" fill="none" fill-rule="evenodd">
        <g id="5.1.2数据任务拖拽界面（操作说明）" transform="translate(-1000.000000, -269.000000)" fill-rule="nonzero">
            <g id="编组-3备份-3" transform="translate(982.000000, 261.000000)">
                <g id="edit" transform="translate(24.000000, 14.000000)">
                    <g id="路径">
                        <use fill="black" fill-opacity="1" filter="url(#filter-2)" xlink:href="#path-1"></use>
                        <use fill="#FD9827" xlink:href="#path-1"></use>
                    </g>
                    <g id="重新编辑" transform="translate(8.000000, 8.000000)" fill="#FFFFFF">
                        <path d="M12.9864555,11.9702527 L12.9864555,11.9702527 C13.5462211,11.9702527 14,12.4246267 14,12.9851264 C14,13.545626 13.5462211,14 12.9864555,14 C12.9864554,14 12.9864554,14 12.9864554,14 L7.91873275,14 L7.9187328,14 C7.3589672,14 6.90518827,13.545626 6.90518827,12.9851264 C6.90518827,12.4246267 7.3589672,11.9702527 7.9187328,11.9702527 C7.91873282,11.9702527 7.91873283,11.9702527 7.91873285,11.9702527 L12.9864555,11.9702527 L12.9864555,11.9702527 Z M7.60200015,2.51924187 L11.149406,6.07129969 L3.92790122,13.3022744 L3.9279012,13.3022744 C3.76629786,13.6090834 3.45075135,13.8035189 3.10439626,13.8097112 L0.000416132934,13.8097112 L0.000416132934,10.7650903 L0.000416129454,10.7650902 C-0.00863193304,10.4276824 0.130245443,10.1032102 0.380495329,9.87707576 L7.60200012,2.51924187 L7.60200015,2.51924187 Z M11.6561783,0.362635468 L13.4298812,2.13866434 L13.4298812,2.13866435 C13.912762,2.63194844 13.912762,3.42140913 13.4298812,3.91469322 L12.5430297,4.80270766 L8.99562387,1.25064992 L9.88247534,0.362635484 L9.88247537,0.362635454 C10.3751134,-0.120878495 11.1635402,-0.120878495 11.6561783,0.362635513 L11.6561783,0.362635468 Z" id="形状"></path>
                    </g>
                </g>
            </g>
        </g>
    </g>
</svg>