<?xml version="1.0" standalone="no"?><!DOCTYPE svg PUBLIC "-//W3C//DTD SVG 1.1//EN" "http://www.w3.org/Graphics/SVG/1.1/DTD/svg11.dtd"><svg t="1667804208509" class="icon" viewBox="0 0 1024 1024" version="1.1" xmlns="http://www.w3.org/2000/svg" p-id="2497" xmlns:xlink="http://www.w3.org/1999/xlink" width="200" height="200"><path d="M336.73216 430.05952c21.46304-37.1712 45.11744-71.22944 70.0416-101.5808 14.68416-73.35936 47.53408-140.16512 93.65504-195.52256-133.3248 4.28032-261.44768 75.28448-333.06624 199.31136-110.16192 190.81216-44.78976 434.81088 146.0224 544.9728-97.25952-56.15616-86.81472-256.36864 23.3472-447.1808z" fill="#FFCE71" p-id="2498"></path><path d="M712.35584 186.24512c-66.80576-38.56384-140.10368-55.58272-211.92704-53.28896-46.12096 55.35744-78.97088 122.14272-93.65504 195.52256 102.95296-125.48096 227.24608-187.45344 305.58208-142.2336z" fill="#FCE3A0" p-id="2499"></path><path d="M454.79936 632.32c-36.06528-64.02048-56.66816-137.89184-56.66816-216.61696 0-29.85984 2.99008-59.02336 8.62208-87.22432-24.90368 30.35136-48.57856 64.4096-70.0416 101.5808-110.16192 190.81216-120.60672 391.02464-23.3472 447.20128 69.4272 40.07936 174.94016-4.05504 269.7216-101.94944a444.55936 444.55936 0 0 1-128.28672-142.99136z" fill="#55DAFE" p-id="2500"></path><path d="M712.35584 186.24512c-78.336-45.21984-202.60864 16.75264-305.58208 142.2336a443.461632 443.461632 0 0 0-8.62208 87.22432c0 78.70464 20.60288 152.59648 56.66816 216.61696 31.8464 56.54528 75.776 105.3696 128.3072 142.99136 38.03136-39.28064 74.3424-87.22432 105.90208-141.86496 110.14144-190.81216 120.60672-391.02464 23.32672-447.20128z" fill="#B9F0FF" p-id="2501"></path><path d="M583.10656 775.31136c-94.78144 97.8944-200.2944 142.0288-269.7216 101.94944 53.6576 30.98624 111.53408 48.08704 169.45152 52.40832a404.928512 404.928512 0 0 0 38.58432 1.00352c19.2512-0.43008 38.4-2.2528 57.28256-5.4272 9.44128-1.57696 18.8416-3.50208 28.13952-5.77536 3.09248-0.75776 6.18496-1.536 9.27744-2.37568a400.154624 400.154624 0 0 0 45.38368-15.11424 393.33888 393.33888 0 0 0 34.89792-15.9744c17.08032-8.82688 33.5872-18.92352 49.33632-30.22848 2.92864-2.08896 5.81632-4.23936 8.68352-6.43072-62.89408-12.34944-121.0368-38.05184-171.3152-74.0352z" fill="#FF8E9E" p-id="2502"></path><path d="M689.00864 633.4464c-31.55968 54.64064-67.87072 102.58432-105.90208 141.86496 50.2784 36.00384 108.40064 61.68576 171.33568 74.05568 2.29376-1.7408 4.56704-3.50208 6.81984-5.28384a396.783616 396.783616 0 0 0 43.2128-39.91552c2.2528-2.41664 4.48512-4.85376 6.67648-7.33184 4.4032-4.95616 8.68352-10.05568 12.86144-15.2576 12.53376-15.64672 24.02304-32.41984 34.36544-50.31936 110.16192-190.81216 44.78976-434.81088-146.0224-544.9728 97.28 56.13568 86.81472 256.34816-23.3472 447.16032z" fill="#FFB5C0" p-id="2503"></path><path d="M512.18432 941.2608c-69.44768 0-139.75552-17.65376-204.10368-54.80448C213.34016 831.75424 145.55136 743.424 117.248 637.7472s-13.78304-216.064 40.91904-310.80448c6.94272-12.02176 14.56128-23.79776 22.60992-35.00032a10.6496 10.6496 0 0 1 14.848-2.41664 10.627072 10.627072 0 0 1 2.41664 14.848c-7.63904 10.60864-14.86848 21.79072-21.44256 33.19808C124.7232 427.4176 110.94016 532.0704 137.78944 632.25856c26.84928 100.18816 91.09504 183.93088 180.92032 235.78624 185.42592 107.04896 423.38304 43.29472 530.432-142.1312 51.85536-89.82528 65.6384-194.47808 38.78912-294.66624-26.84928-100.18816-91.09504-183.93088-180.92032-235.78624-146.67776-84.6848-329.48224-65.2288-454.90176 48.41472a10.62912 10.62912 0 0 1-15.03232-0.73728 10.62912 10.62912 0 0 1 0.73728-15.03232c63.75424-57.77408 142.86848-93.51168 228.78208-103.34208 87.63392-10.0352 174.44864 8.04864 251.06432 52.28544 94.74048 54.70208 162.52928 143.03232 190.83264 248.70912 28.32384 105.6768 13.78304 216.064-40.91904 310.80448-75.75552 131.23584-213.72928 204.67712-355.38944 204.6976z" p-id="2504"></path><path d="M371.32288 902.63552c-23.20384 0-44.52352-5.36576-63.24224-16.1792-50.688-29.26592-76.06272-94.208-71.43424-182.86592 4.48512-86.1184 36.7616-185.1392 90.86976-278.85568 54.10816-93.71648 123.74016-171.17184 196.05504-218.13248 74.46528-48.3328 143.40096-58.83904 194.08896-29.57312 50.688 29.26592 76.06272 94.208 71.43424 182.86592-4.48512 86.1184-36.7616 185.1392-90.86976 278.85568-34.6112 59.94496-76.65664 114.62656-121.58976 158.08512a10.661888 10.661888 0 0 1-15.0528-0.24576c-4.096-4.21888-3.97312-10.9568 0.24576-15.0528 43.52-42.10688 84.31616-95.17056 117.94432-153.43616 52.44928-90.84928 83.72224-186.51136 88.04352-269.33248 4.17792-80.26112-17.408-138.28096-60.8256-163.328-43.39712-25.06752-104.448-14.76608-171.86816 28.99968-69.57056 45.1584-136.76544 120.05376-189.21472 210.92352-52.44928 90.84928-83.72224 186.51136-88.04352 269.33248-4.17792 80.26112 17.408 138.28096 60.8256 163.328 41.51296 23.9616 99.75808 15.42144 164.02432-24.04352 5.0176-3.072 11.5712-1.51552 14.6432 3.50208s1.51552 11.55072-3.50208 14.6432c-43.74528 26.89024-85.54496 40.50944-122.53184 40.50944z" p-id="2505"></path><path d="M375.35744 528.46592a48.49664 37.6832 0 1 0 96.99328 0 48.49664 37.6832 0 1 0-96.99328 0Z" fill="#FF8E9E" p-id="2506"></path><path d="M433.47968 501.43232c-5.87776 0-10.6496-4.77184-10.6496-10.6496V465.1008c0-5.87776 4.77184-10.6496 10.6496-10.6496s10.6496 4.77184 10.6496 10.6496v25.68192c0 5.87776-4.77184 10.6496-10.6496 10.6496z" p-id="2507"></path><path d="M601.00608 519.90528a48.49664 37.6832 0 1 0 96.99328 0 48.49664 37.6832 0 1 0-96.99328 0Z" fill="#FF8E9E" p-id="2508"></path><path d="M626.19648 501.43232c-5.87776 0-10.6496-4.77184-10.6496-10.6496V465.1008c0-5.87776 4.77184-10.6496 10.6496-10.6496s10.6496 4.77184 10.6496 10.6496v25.68192c-0.02048 5.87776-4.77184 10.6496-10.6496 10.6496zM531.29216 508.29312c-17.67424 0-31.68256-8.2944-38.66624-15.29856-4.13696-4.15744-4.11648-10.89536 0.04096-15.0528 4.13696-4.13696 10.83392-4.11648 14.99136-0.02048 2.23232 2.1504 22.17984 20.02944 50.72896-1.00352a10.631168 10.631168 0 1 1 12.61568 17.12128c-14.21312 10.48576-27.81184 14.25408-39.71072 14.25408z" p-id="2509"></path><path d="M502.1696 930.63168zM643.584 908.6976zM606.86336 919.47008zM661.52448 901.98016c-5.9392 2.37568-11.91936 4.608-17.94048 6.69696 6.02112-2.06848 12.02176-4.32128 17.94048-6.69696zM696.4224 886.02624c-5.69344 2.94912-11.44832 5.75488-17.26464 8.41728 5.81632-2.68288 11.5712-5.48864 17.26464-8.41728zM679.15776 894.42304zM502.1696 930.63168zM745.75872 855.79776c2.92864-2.08896 5.81632-4.23936 8.68352-6.43072-2.8672 2.17088-5.75488 4.32128-8.68352 6.43072z" fill="#FF8E9E" p-id="2510"></path><path d="M754.44224 849.36704zM790.65088 818.23744c4.7104-4.56704 9.3184-9.27744 13.824-14.09024-4.5056 4.83328-9.1136 9.5232-13.824 14.09024zM824.0128 781.53728zM790.65088 818.23744c-9.4208 9.13408-19.23072 17.75616-29.3888 25.82528 10.17856-8.06912 19.98848-16.67072 29.3888-25.82528z" fill="#FFB5C0" p-id="2511"></path></svg>