<?xml version="1.0" encoding="UTF-8"?>
<svg width="32px" height="32px" viewBox="0 0 32 32" version="1.1" xmlns="http://www.w3.org/2000/svg" xmlns:xlink="http://www.w3.org/1999/xlink">
    <title>历史记录_jurassic</title>
    <g id="------三期（0202）" stroke="none" stroke-width="1" fill="none" fill-rule="evenodd">
        <g id="5.1.2-数据任务拖拽界面" transform="translate(-916.000000, -104.000000)" fill="#01458E" fill-rule="nonzero">
            <g id="编组-3" transform="translate(836.000000, 90.000000)">
                <g id="历史记录_jurassic" transform="translate(80.000000, 14.000000)">
                    <path d="M16,-1.47645072e-15 C7.16428571,-1.47645072e-15 -1.47645072e-15,7.16428571 -1.47645072e-15,16 C-1.47645072e-15,24.8357143 7.16428571,32 16,32 C24.8357143,32 32,24.8357143 32,16 C32,7.16428571 24.8357143,-1.47645072e-15 16,-1.47645072e-15 Z M24,19.4285714 L13.7142857,19.4285714 C13.0821429,19.4285714 12.5714286,18.9178571 12.5714286,18.2857143 L12.5714286,8 C12.5714286,7.36785714 13.0821429,6.85714286 13.7142857,6.85714286 C14.3464286,6.85714286 14.8571429,7.36785714 14.8571429,8 L14.8571429,17.1428571 L24,17.1428571 C24.6321429,17.1428571 25.1428571,17.6535714 25.1428571,18.2857143 C25.1428571,18.9178571 24.6321429,19.4285714 24,19.4285714 Z" id="形状"></path>
                </g>
            </g>
        </g>
    </g>
</svg>