<svg t="1660196538003" class="icon" viewBox="0 0 1024 1024" version="1.1" xmlns="http://www.w3.org/2000/svg" p-id="693" xmlns:xlink="http://www.w3.org/1999/xlink" width="200" height="200"><defs><style type="text/css"></style></defs><path d="M0 0h1024v1024H0z" fill="#FFFFFF" p-id="694"></path><path d="M85.333 85.333h853.334v853.334H85.333z" fill="#FFFFFF" p-id="695"></path><path d="M512 53.333c253.312 0 458.667 205.355 458.667 458.667S765.312 970.667 512 970.667 53.333 765.312 53.333 512 258.688 53.333 512 53.333zM512 224c-159.061 0-288 128.939-288 288s128.939 288 288 288 288-128.939 288-288-128.939-288-288-288z" fill="#111111" p-id="696"></path><path d="M601.643 603.37l84.928 49.003A223.765 223.765 0 0 1 544 733.74v-97.792a127.83 127.83 0 0 0 57.643-32.598z m-121.664 32.598v97.77a223.787 223.787 0 0 1-143.147-82.09l84.821-48.96a127.85 127.85 0 0 0 58.326 33.28zM512 426.667a85.333 85.333 0 1 1 0 170.666 85.333 85.333 0 0 1 0-170.666zM736 512c0 30.208-5.973 59.008-16.81 85.29l-84.48-48.767A128.021 128.021 0 0 0 640 512c0-11.392-1.493-22.443-4.267-32.96l84.822-48.939C730.517 455.467 736 483.093 736 512z m-432.896-81.024L388.032 480a128.213 128.213 0 0 0 0.981 67.584l-84.565 48.853A223.36 223.36 0 0 1 288 512c0-28.587 5.333-55.893 15.104-81.024z m176.853-140.715l0.022 97.771A127.915 127.915 0 0 0 419.029 424l-84.48-48.747a223.83 223.83 0 0 1 145.43-84.992z m208.875 84.224l-84.544 48.811A127.893 127.893 0 0 0 544 388.053v-97.77a223.808 223.808 0 0 1 144.81 84.224z" fill="#111111" p-id="697"></path></svg>