<?xml version="1.0" encoding="UTF-8"?>
<svg width="14px" height="14px" viewBox="0 0 14 14" version="1.1" xmlns="http://www.w3.org/2000/svg" xmlns:xlink="http://www.w3.org/1999/xlink">
    <title>进行中</title>
    <defs>
        <filter id="filter-1">
            <feColorMatrix in="SourceGraphic" type="matrix" values="0 0 0 0 0.752941 0 0 0 0 0.768627 0 0 0 0 0.800000 0 0 0 1.000000 0"></feColorMatrix>
        </filter>
    </defs>
    <g id="------三期（0202）" stroke="none" stroke-width="1" fill="none" fill-rule="evenodd">
        <g id="5.1.2-数据任务拖拽界面-执行" transform="translate(-824.000000, -479.000000)">
            <g id="进行中" transform="translate(686.000000, 468.000000)" filter="url(#filter-1)">
                <g transform="translate(138.000000, 11.000000)">
                    <path d="M7,14 C5.13165014,14 3.37376014,13.2709648 2.05139766,11.9486023 C0.729035167,10.6262399 6.52354241e-16,8.86834986 6.52354241e-16,7 C6.52354241e-16,5.13165014 0.729035167,3.37376014 2.05139766,2.05139766 C3.37376014,0.729035167 5.13165014,6.52354241e-16 7,6.52354241e-16 C8.86834986,6.52354241e-16 10.6262399,0.729035167 11.9486023,2.05139766 C13.2709648,3.37376014 14,5.13165014 14,7 C14,8.86834986 13.2709648,10.6262399 11.9486023,11.9486023 C10.6262399,13.2709648 8.86834986,14 7,14 Z M7,0.946798918 C3.66095582,0.946798918 0.946798918,3.66095582 0.946798918,7 C0.946798918,10.3390442 3.66095582,13.0532011 7,13.0532011 C10.3390442,13.0532011 13.0532011,10.3390442 13.0532011,7 C13.0532011,3.66095582 10.3390442,0.946798918 7,0.946798918 Z M10.6451758,7.56807935 C10.6451758,7.30613165 10.4337241,7.09467989 10.1717764,7.09467989 L7.0915239,7.09467989 L7.0915239,3.46528404 C7.0915239,3.20333634 6.88007214,2.99188458 6.61812444,2.99188458 C6.35617674,2.99188458 6.14472498,3.20333634 6.14472498,3.46528404 L6.14472498,7.56807935 C6.14472498,7.83002705 6.35617674,8.04147881 6.61812444,8.04147881 L10.1717764,8.04147881 C10.4337241,8.04147881 10.6451758,7.83002705 10.6451758,7.56807935 Z" id="形状" fill="#040000" fill-rule="nonzero"></path>
                </g>
            </g>
        </g>
    </g>
</svg>