<?xml version="1.0" encoding="UTF-8"?>
<svg width="32px" height="32px" viewBox="0 0 32 32" version="1.1" xmlns="http://www.w3.org/2000/svg" xmlns:xlink="http://www.w3.org/1999/xlink">
    <title>question</title>
    <g id="------三期（0202）" stroke="none" stroke-width="1" fill="none" fill-rule="evenodd">
        <g id="5.1.2-数据任务拖拽界面" transform="translate(-972.000000, -104.000000)" fill="#01458E">
            <g id="编组-3" transform="translate(836.000000, 90.000000)">
                <g id="question" transform="translate(136.000000, 14.000000)">
                    <path d="M31.9999529,16 C31.9999529,24.8365785 24.8365243,32 16,32 C7.16345,32 0,24.8365785 0,16 C0,7.16343566 7.16345,0 16,0 C24.8365243,0 31.9999529,7.16343566 31.9999529,16 Z M17.2165929,24.6774928 C16.8847986,25.0093785 16.4423986,25.1753214 15.9999986,25.1753214 C15.5575986,25.1753214 15.1151986,24.9817214 14.7834043,24.6774928 C14.45161,24.3458357 14.2857129,23.9033214 14.2857129,23.4610357 C14.2857129,22.9908642 14.4792671,22.5761442 14.7834043,22.2443499 C15.1151986,21.9125557 15.5575986,21.7466585 15.9999986,21.7466585 C16.4423986,21.7466585 16.8847986,21.9401899 17.2165929,22.2443499 C17.5483871,22.5761442 17.7142843,23.0185214 17.7142843,23.4610357 C17.7142843,23.9309785 17.5483871,24.3734928 17.2165929,24.6774928 Z M17.4399986,17.3714357 C17.6457129,17.0971499 17.9199986,16.8685785 18.2399986,16.7542928 C20.3428557,15.9314357 21.7142843,14.0800071 21.66857,12.0000071 C21.6914271,10.6057214 21.0742843,9.30286423 19.9542843,8.32000708 C18.8799986,7.38286423 17.4628557,6.85714994 15.9771414,6.85714994 C14.4914271,6.85714994 13.0742843,7.38286423 11.9999986,8.32000708 C11.0399986,9.14286423 10.46857,10.2171499 10.30857,11.3828642 C10.30857,11.4528757 10.2999986,11.6000757 10.2933471,11.7141328 C10.2891414,11.7862699 10.2857129,11.8451499 10.2857129,11.8628642 C10.30857,12.1371499 10.4228557,12.3885785 10.5828557,12.5714357 C10.78857,12.8000071 11.0857129,12.9600071 11.42857,12.9600071 C11.7714271,12.9600071 12.1599986,12.8000071 12.2971414,12.5942928 C12.4571414,12.4342928 12.5714271,11.6800071 12.5714271,11.6342928 C12.7999986,10.2400071 14.2399986,9.16572137 15.9771414,9.16572137 C17.8742843,9.16572137 19.4057129,10.4457214 19.4057129,12.0228642 C19.4057129,13.1428642 18.6057129,14.1714357 17.3942843,14.6285785 C16.6399986,14.9257214 15.9999986,15.4285785 15.5428557,16.0914357 C15.0857129,16.7542928 14.8342843,17.5771499 14.8342843,18.4000071 C14.8038081,18.8419118 14.8799986,19.184769 15.0628557,19.4285785 C15.2914271,19.7257214 15.6114271,19.9314357 15.9999986,19.9314357 C16.38857,19.9314357 16.70857,19.7028642 16.9371414,19.4285785 C17.0742843,19.2304833 17.1428557,18.872388 17.1428557,18.3542928 C17.1428557,18.0114357 17.2342843,17.6685785 17.4399986,17.3714357 Z" id="Union"></path>
                </g>
            </g>
        </g>
    </g>
</svg>