<?xml version="1.0" standalone="no"?><!DOCTYPE svg PUBLIC "-//W3C//DTD SVG 1.1//EN" "http://www.w3.org/Graphics/SVG/1.1/DTD/svg11.dtd"><svg t="1660202253057" class="icon" viewBox="0 0 1024 1024" version="1.1" xmlns="http://www.w3.org/2000/svg" p-id="923" xmlns:xlink="http://www.w3.org/1999/xlink" width="200" height="200"><defs><style type="text/css"></style></defs><path d="M256.63 192.19h510.94c52.75 0 95.67-42.92 95.67-95.67v-0.62c0-52.75-42.92-95.67-95.67-95.67H256.63c-52.75 0-95.67 42.92-95.67 95.67v0.61c0 52.76 42.92 95.68 95.67 95.68zM224.96 95.9c0-17.47 14.21-31.67 31.67-31.67h510.94c17.46 0 31.67 14.21 31.67 31.67v0.61c0 17.46-14.21 31.67-31.67 31.67H256.63c-17.47 0-31.67-14.21-31.67-31.67v-0.61zM935.46 382.06c-12.3-21.06-29.49-45.29-48.4-68.23-19.28-23.38-38.89-43.81-56.68-59.08-24.79-21.27-44.58-31.17-62.27-31.17H255.58c-17.74 0-37.49 9.93-62.14 31.26-17.65 15.27-37.08 35.71-56.18 59.13-18.7 22.92-35.7 47.15-47.87 68.24-15.74 27.24-23.39 48.83-23.39 66v453c0 30.3 10.04 59.04 28.26 80.92 19.35 23.23 46.66 36.56 74.93 36.56h686.76c28.27 0 55.58-13.32 74.93-36.56 18.23-21.88 28.26-50.62 28.26-80.92v-453c0.01-17.22-7.74-38.86-23.68-66.15z m-40.31 519.15c0 28.99-17.95 53.48-39.19 53.48H169.19c-21.24 0-39.19-24.49-39.19-53.48V448.29c0.41-9.67 17.55-44.7 53.04-89.17 15.35-19.23 31.76-37.15 46.21-50.47 16.98-15.65 25.81-20.05 28.28-21.07h508.63c2.46 1.01 11.35 5.38 28.53 21.06 14.59 13.32 31.17 31.23 46.68 50.45 35.92 44.48 53.32 79.54 53.77 89.13v452.99z" fill="#6A6A6A" p-id="924"></path><path d="M704.12 608.23H545.68V448.21c0-17.67-14.33-32-32-32s-32 14.33-32 32v160.02H316.91c-17.67 0-32 14.33-32 32s14.33 32 32 32h164.76v163.19c0 17.67 14.33 32 32 32s32-14.33 32-32V672.23h158.45c17.67 0 32-14.33 32-32s-14.32-32-32-32z" fill="#6A6A6A" p-id="925"></path></svg>